<?xml version="1.0" encoding="utf-8"?>
<!-- Generator: Adobe Illustrator 25.0.1, SVG Export Plug-In . SVG Version: 6.00 Build 0)  -->
<svg version="1.1" id="Layer_2" xmlns="http://www.w3.org/2000/svg" xmlns:xlink="http://www.w3.org/1999/xlink" x="0px" y="0px"
	 viewBox="0 0 100 100" style="enable-background:new 0 0 100 100;" xml:space="preserve">
<style type="text/css">
	.st0{fill:#ffffff;}
</style>
<path class="st0" d="M50,0C22.39,0,0,22.39,0,50c0,27.61,22.39,50,50,50s50-22.39,50-50C100,22.39,77.61,0,50,0z M8.89,50
	C8.89,27.3,27.3,8.89,50,8.89c9.32,0,17.92,3.1,24.81,8.34L17.23,74.81C11.99,67.92,8.89,59.32,8.89,50z M50,91.11
	c-10.18,0-19.49-3.7-26.67-9.82l57.96-57.96c6.12,7.18,9.82,16.49,9.82,26.67C91.11,72.7,72.7,91.11,50,91.11z"/>
</svg>
