<?xml version="1.0" encoding="utf-8"?>
<!-- Generator: Adobe Illustrator 25.0.1, SVG Export Plug-In . SVG Version: 6.00 Build 0)  -->
<svg version="1.1" xmlns="http://www.w3.org/2000/svg" xmlns:xlink="http://www.w3.org/1999/xlink" x="0px" y="0px"
	 viewBox="0 0 660 100" style="enable-background:new 0 0 660 100;" xml:space="preserve">
<style type="text/css">
	.st0{opacity:0.5;}
	.st1{fill:#FFFFFF;}
</style>
<g id="Star_5" class="st0">
	<g>
		<path class="st1" d="M616.36,85.54c-2.41-1.33-6.35-1.33-8.75,0l-22.15,12.24c-2.41,1.33-4.01,0.2-3.57-2.52l4.29-26.31
			c0.44-2.71-0.77-6.55-2.69-8.51l-18.02-18.47c-1.92-1.97-1.27-3.92,1.45-4.33l24.66-3.77c2.72-0.42,5.9-2.79,7.07-5.28l11.2-23.87
			c1.17-2.49,3.08-2.49,4.25,0l11.2,23.87c1.17,2.49,4.35,4.87,7.07,5.28l24.66,3.77c2.72,0.42,3.37,2.37,1.45,4.33l-18.02,18.47
			c-1.92,1.97-3.13,5.8-2.69,8.51l4.29,26.31c0.44,2.71-1.16,3.85-3.57,2.52L616.36,85.54z"/>
	</g>
</g>
<g id="Star_4" class="st0">
	<g>
		<path class="st1" d="M503.44,85.54c-2.41-1.33-6.35-1.33-8.75,0l-22.15,12.24c-2.41,1.33-4.01,0.2-3.57-2.52l4.29-26.31
			c0.44-2.71-0.77-6.55-2.69-8.51l-18.02-18.47c-1.92-1.97-1.27-3.92,1.45-4.33l24.66-3.77c2.72-0.42,5.9-2.79,7.07-5.28l11.2-23.87
			c1.17-2.49,3.08-2.49,4.25,0l11.2,23.87c1.17,2.49,4.35,4.87,7.07,5.28l24.66,3.77c2.72,0.42,3.37,2.37,1.45,4.33l-18.02,18.47
			c-1.92,1.97-3.13,5.8-2.69,8.51l4.29,26.31c0.44,2.71-1.16,3.85-3.57,2.52L503.44,85.54z"/>
	</g>
</g>
<g id="Star_3" class="st0">
	<g>
		<path class="st1" d="M390.53,85.54c-2.41-1.33-6.35-1.33-8.75,0l-22.15,12.24c-2.41,1.33-4.01,0.2-3.57-2.52l4.29-26.31
			c0.44-2.71-0.77-6.55-2.69-8.51l-18.02-18.47c-1.92-1.97-1.27-3.92,1.45-4.33l24.66-3.77c2.72-0.42,5.9-2.79,7.07-5.28l11.2-23.87
			c1.17-2.49,3.08-2.49,4.25,0l11.2,23.87c1.17,2.49,4.35,4.87,7.07,5.28l24.66,3.77c2.72,0.42,3.37,2.37,1.45,4.33l-18.02,18.47
			c-1.92,1.97-3.13,5.8-2.69,8.51l4.29,26.31c0.44,2.71-1.16,3.85-3.57,2.52L390.53,85.54z"/>
	</g>
</g>
<g id="Star_2" class="st0">
	<g>
		<path class="st1" d="M277.61,85.54c-2.41-1.33-6.35-1.33-8.75,0l-22.15,12.24c-2.41,1.33-4.01,0.2-3.57-2.52l4.29-26.31
			c0.44-2.71-0.77-6.55-2.69-8.51l-18.02-18.47c-1.92-1.97-1.27-3.92,1.45-4.33l24.66-3.77c2.72-0.42,5.9-2.79,7.07-5.28l11.2-23.87
			c1.17-2.49,3.08-2.49,4.25,0l11.2,23.87c1.17,2.49,4.35,4.87,7.07,5.28l24.66,3.77c2.72,0.42,3.37,2.37,1.45,4.33l-18.02,18.47
			c-1.92,1.97-3.13,5.8-2.69,8.51l4.29,26.31c0.44,2.71-1.16,3.85-3.57,2.52L277.61,85.54z"/>
	</g>
</g>
<g id="Star_1" class="st0">
	<g>
		<path class="st1" d="M164.7,85.54c-2.41-1.33-6.35-1.33-8.75,0L133.8,97.78c-2.41,1.33-4.01,0.2-3.57-2.52l4.29-26.31
			c0.44-2.71-0.77-6.55-2.69-8.51l-18.02-18.47c-1.92-1.97-1.27-3.92,1.45-4.33l24.66-3.77c2.72-0.42,5.9-2.79,7.07-5.28l11.2-23.87
			c1.17-2.49,3.08-2.49,4.25,0l11.2,23.87c1.17,2.49,4.35,4.87,7.07,5.28l24.66,3.77c2.72,0.42,3.37,2.37,1.45,4.33l-18.02,18.47
			c-1.92,1.97-3.13,5.8-2.69,8.51l4.29,26.31c0.44,2.71-1.16,3.85-3.57,2.52L164.7,85.54z"/>
	</g>
</g>
<g id="Star_1_copy">
	<g>
		<path class="st1" d="M160.32,78.12c0,2.75-1.97,6.09-4.38,7.42L133.8,97.78c-2.41,1.33-4.01,0.2-3.57-2.52l4.29-26.31
			c0.44-2.71-0.77-6.55-2.69-8.51l-18.02-18.47c-1.92-1.97-1.27-3.92,1.45-4.33l24.66-3.77c2.72-0.42,5.9-2.79,7.07-5.28l11.2-23.87
			c1.17-2.49,2.12-2.28,2.12,0.47V78.12z"/>
	</g>
</g>
<g id="Delete" class="st0">
	<g>
		<path class="st1" d="M48.25,2.75c-26.23,0-47.5,21.27-47.5,47.5s21.27,47.5,47.5,47.5s47.5-21.27,47.5-47.5S74.48,2.75,48.25,2.75
			z M48.25,87.75c-20.71,0-37.5-16.79-37.5-37.5s16.79-37.5,37.5-37.5s37.5,16.79,37.5,37.5S68.96,87.75,48.25,87.75z"/>
		<path class="st1" d="M70.99,20.44L18.44,72.99c2.03,2.66,4.41,5.04,7.07,7.07l52.55-52.55C76.03,24.85,73.65,22.47,70.99,20.44z"
			/>
	</g>
</g>
</svg>
