<?xml version="1.0" encoding="utf-8"?>
<!-- Generator: Adobe Illustrator 25.0.1, SVG Export Plug-In . SVG Version: 6.00 Build 0)  -->
<svg version="1.1" xmlns="http://www.w3.org/2000/svg" xmlns:xlink="http://www.w3.org/1999/xlink" x="0px" y="0px"
	 viewBox="0 0 550 100" style="enable-background:new 0 0 550 100;" xml:space="preserve">
<style type="text/css">
	.st0{opacity:0.5;}
	.st1{fill:#FFFFFF;}
	.st2{opacity:0.9;}
</style>
<g id="Star_1">
	<g class="st0">
		<path class="st1" d="M58.62,84.85c-1.93-1.06-5.08-1.06-7,0l-23.9,13.21c-1.93,1.06-3.21,0.16-2.86-2.01l4.61-28.28
			c0.35-2.17-0.61-5.24-2.15-6.81L7.91,41.06c-1.54-1.57-1.01-3.13,1.16-3.47l26.64-4.07c2.17-0.33,4.72-2.23,5.65-4.23L53.42,3.62
			c0.93-1.99,2.46-1.99,3.4,0L68.87,29.3c0.93,1.99,3.48,3.89,5.65,4.23l26.64,4.07c2.17,0.33,2.7,1.89,1.16,3.47l-19.41,19.9
			c-1.54,1.57-2.5,4.64-2.15,6.81l4.61,28.28c0.35,2.17-0.93,3.08-2.86,2.01L58.62,84.85z"/>
	</g>
	<g class="st2">
		<path class="st1" d="M58.62,84.85c-1.93-1.06-5.08-1.06-7,0l-23.9,13.21c-1.93,1.06-3.21,0.16-2.86-2.01l4.61-28.28
			c0.35-2.17-0.61-5.24-2.15-6.81L7.91,41.06c-1.54-1.57-1.01-3.13,1.16-3.47l26.64-4.07c2.17-0.33,4.72-2.23,5.65-4.23L53.42,3.62
			c0.93-1.99,2.46-1.99,3.4,0L68.87,29.3c0.93,1.99,3.48,3.89,5.65,4.23l26.64,4.07c2.17,0.33,2.7,1.89,1.16,3.47l-19.41,19.9
			c-1.54,1.57-2.5,4.64-2.15,6.81l4.61,28.28c0.35,2.17-0.93,3.08-2.86,2.01L58.62,84.85z"/>
	</g>
</g>
<g id="Star_2">
	<g class="st0">
		<path class="st1" d="M168.62,84.85c-1.93-1.06-5.08-1.06-7,0l-23.9,13.21c-1.93,1.06-3.21,0.16-2.86-2.01l4.61-28.28
			c0.35-2.17-0.61-5.24-2.15-6.81l-19.41-19.9c-1.54-1.57-1.01-3.13,1.16-3.47l26.64-4.07c2.17-0.33,4.72-2.23,5.65-4.23
			l12.05-25.68c0.93-1.99,2.46-1.99,3.4,0l12.05,25.68c0.93,1.99,3.48,3.89,5.65,4.23l26.64,4.07c2.17,0.33,2.7,1.89,1.16,3.47
			l-19.41,19.9c-1.54,1.57-2.5,4.64-2.15,6.81l4.61,28.28c0.35,2.17-0.93,3.08-2.86,2.01L168.62,84.85z"/>
	</g>
	<g class="st2">
		<path class="st1" d="M168.62,84.85c-1.93-1.06-5.08-1.06-7,0l-23.9,13.21c-1.93,1.06-3.21,0.16-2.86-2.01l4.61-28.28
			c0.35-2.17-0.61-5.24-2.15-6.81l-19.41-19.9c-1.54-1.57-1.01-3.13,1.16-3.47l26.64-4.07c2.17-0.33,4.72-2.23,5.65-4.23
			l12.05-25.68c0.93-1.99,2.46-1.99,3.4,0l12.05,25.68c0.93,1.99,3.48,3.89,5.65,4.23l26.64,4.07c2.17,0.33,2.7,1.89,1.16,3.47
			l-19.41,19.9c-1.54,1.57-2.5,4.64-2.15,6.81l4.61,28.28c0.35,2.17-0.93,3.08-2.86,2.01L168.62,84.85z"/>
	</g>
</g>
<g id="Star_3">
	<g class="st0">
		<path class="st1" d="M278.62,84.85c-1.93-1.06-5.08-1.06-7,0l-23.9,13.21c-1.93,1.06-3.21,0.16-2.86-2.01l4.61-28.28
			c0.35-2.17-0.61-5.24-2.15-6.81l-19.41-19.9c-1.54-1.57-1.01-3.13,1.16-3.47l26.64-4.07c2.17-0.33,4.72-2.23,5.65-4.23
			l12.05-25.68c0.93-1.99,2.46-1.99,3.4,0l12.05,25.68c0.93,1.99,3.48,3.89,5.65,4.23l26.64,4.07c2.17,0.33,2.7,1.89,1.16,3.47
			l-19.41,19.9c-1.54,1.57-2.5,4.64-2.15,6.81l4.61,28.28c0.35,2.17-0.93,3.08-2.86,2.01L278.62,84.85z"/>
	</g>
	<g class="st2">
		<path class="st1" d="M278.62,84.85c-1.93-1.06-5.08-1.06-7,0l-23.9,13.21c-1.93,1.06-3.21,0.16-2.86-2.01l4.61-28.28
			c0.35-2.17-0.61-5.24-2.15-6.81l-19.41-19.9c-1.54-1.57-1.01-3.13,1.16-3.47l26.64-4.07c2.17-0.33,4.72-2.23,5.65-4.23
			l12.05-25.68c0.93-1.99,2.46-1.99,3.4,0l12.05,25.68c0.93,1.99,3.48,3.89,5.65,4.23l26.64,4.07c2.17,0.33,2.7,1.89,1.16,3.47
			l-19.41,19.9c-1.54,1.57-2.5,4.64-2.15,6.81l4.61,28.28c0.35,2.17-0.93,3.08-2.86,2.01L278.62,84.85z"/>
	</g>
</g>
<g id="Star_4">
	<g class="st0">
		<path class="st1" d="M388.62,84.85c-1.93-1.06-5.08-1.06-7,0l-23.9,13.21c-1.93,1.06-3.21,0.16-2.86-2.01l4.61-28.28
			c0.35-2.17-0.61-5.24-2.15-6.81l-19.41-19.9c-1.54-1.57-1.01-3.13,1.16-3.47l26.64-4.07c2.17-0.33,4.72-2.23,5.65-4.23
			l12.05-25.68c0.93-1.99,2.46-1.99,3.4,0l12.05,25.68c0.93,1.99,3.48,3.89,5.65,4.23l26.64,4.07c2.17,0.33,2.7,1.89,1.16,3.47
			l-19.41,19.9c-1.54,1.57-2.5,4.64-2.15,6.81l4.61,28.28c0.35,2.17-0.93,3.08-2.86,2.01L388.62,84.85z"/>
	</g>
</g>
<g id="Star_5">
	<g class="st0">
		<path class="st1" d="M498.62,84.85c-1.93-1.06-5.08-1.06-7,0l-23.9,13.21c-1.93,1.06-3.21,0.16-2.86-2.01l4.61-28.28
			c0.35-2.17-0.61-5.24-2.15-6.81l-19.41-19.9c-1.54-1.57-1.01-3.13,1.16-3.47l26.64-4.07c2.17-0.33,4.72-2.23,5.65-4.23
			l12.05-25.68c0.93-1.99,2.46-1.99,3.4,0l12.05,25.68c0.93,1.99,3.48,3.89,5.65,4.23l26.64,4.07c2.17,0.33,2.7,1.89,1.16,3.47
			l-19.41,19.9c-1.54,1.57-2.5,4.64-2.15,6.81l4.61,28.28c0.35,2.17-0.93,3.08-2.86,2.01L498.62,84.85z"/>
	</g>
</g>
</svg>
