<?xml version="1.0" encoding="utf-8"?>
<!-- Generator: Adobe Illustrator 25.0.1, SVG Export Plug-In . SVG Version: 6.00 Build 0)  -->
<svg
	version="1.1"
	id="Layer_1"
	xmlns="http://www.w3.org/2000/svg"
	xmlns:xlink="http://www.w3.org/1999/xlink"
	x="0px"
	y="0px"
	viewBox="0 0 550 100"
	style="enable-background: new 0 0 550 100"
	xml:space="preserve"
>
	<style type="text/css">
		.starRating10_0 {
			opacity: 0;
		}
		.starRating10_1 {
			fill: #ffffff;
		}
	</style>
	<g id="Star_1">
		<g class="starRating10_0">
			<path
				class="starRating10_1"
				d="M58.6,84.8c-1.9-1.1-5.1-1.1-7,0L27.7,98.1c-1.9,1.1-3.2,0.2-2.9-2l4.6-28.3c0.4-2.2-0.6-5.2-2.1-6.8
			L7.9,41.1c-1.5-1.6-1-3.1,1.2-3.5l26.6-4.1c2.2-0.3,4.7-2.2,5.7-4.2L53.4,3.6c0.9-2,2.5-2,3.4,0l12.1,25.7c0.9,2,3.5,3.9,5.7,4.2
			l26.6,4.1c2.2,0.3,2.7,1.9,1.2,3.5L82.9,61c-1.5,1.6-2.5,4.6-2.2,6.8l4.6,28.3c0.3,2.2-0.9,3.1-2.9,2L58.6,84.8z"
			/>
		</g>
		<g>
			<path
				class="starRating10_1"
				d="M58.6,84.8c-1.9-1.1-5.1-1.1-7,0L27.7,98.1c-1.9,1.1-3.2,0.2-2.9-2l4.6-28.3c0.4-2.2-0.6-5.2-2.1-6.8
			L7.9,41.1c-1.5-1.6-1-3.1,1.2-3.5l26.6-4.1c2.2-0.3,4.7-2.2,5.7-4.2L53.4,3.6c0.9-2,2.5-2,3.4,0l12.1,25.7c0.9,2,3.5,3.9,5.7,4.2
			l26.6,4.1c2.2,0.3,2.7,1.9,1.2,3.5L82.9,61c-1.5,1.6-2.5,4.6-2.2,6.8l4.6,28.3c0.3,2.2-0.9,3.1-2.9,2L58.6,84.8z"
			/>
		</g>
	</g>
	<g id="Star_2">
		<g class="starRating10_0">
			<path
				class="starRating10_1"
				d="M168.6,84.8c-1.9-1.1-5.1-1.1-7,0l-23.9,13.2c-1.9,1.1-3.2,0.2-2.9-2l4.6-28.3c0.4-2.2-0.6-5.2-2.1-6.8
			l-19.4-19.9c-1.5-1.6-1-3.1,1.2-3.5l26.6-4.1c2.2-0.3,4.7-2.2,5.6-4.2l12.1-25.7c0.9-2,2.5-2,3.4,0l12.1,25.7
			c0.9,2,3.5,3.9,5.6,4.2l26.6,4.1c2.2,0.3,2.7,1.9,1.2,3.5L192.9,61c-1.5,1.6-2.5,4.6-2.1,6.8l4.6,28.3c0.4,2.2-0.9,3.1-2.9,2
			L168.6,84.8z"
			/>
		</g>
		<g>
			<path
				class="starRating10_1"
				d="M168.6,84.8c-1.9-1.1-5.1-1.1-7,0l-23.9,13.2c-1.9,1.1-3.2,0.2-2.9-2l4.6-28.3c0.4-2.2-0.6-5.2-2.1-6.8
			l-19.4-19.9c-1.5-1.6-1-3.1,1.2-3.5l26.6-4.1c2.2-0.3,4.7-2.2,5.6-4.2l12.1-25.7c0.9-2,2.5-2,3.4,0l12.1,25.7
			c0.9,2,3.5,3.9,5.6,4.2l26.6,4.1c2.2,0.3,2.7,1.9,1.2,3.5L192.9,61c-1.5,1.6-2.5,4.6-2.1,6.8l4.6,28.3c0.4,2.2-0.9,3.1-2.9,2
			L168.6,84.8z"
			/>
		</g>
	</g>
	<g id="Star_3">
		<g class="starRating10_0">
			<path
				class="starRating10_1"
				d="M278.6,84.8c-1.9-1.1-5.1-1.1-7,0l-23.9,13.2c-1.9,1.1-3.2,0.2-2.9-2l4.6-28.3c0.4-2.2-0.6-5.2-2.1-6.8
			l-19.4-19.9c-1.5-1.6-1-3.1,1.2-3.5l26.6-4.1c2.2-0.3,4.7-2.2,5.7-4.2l12-25.7c0.9-2,2.5-2,3.4,0l12,25.7c0.9,2,3.5,3.9,5.6,4.2
			l26.6,4.1c2.2,0.3,2.7,1.9,1.2,3.5L302.9,61c-1.5,1.6-2.5,4.6-2.1,6.8l4.6,28.3c0.4,2.2-0.9,3.1-2.9,2L278.6,84.8z"
			/>
		</g>
		<g>
			<path
				class="starRating10_1"
				d="M278.6,84.8c-1.9-1.1-5.1-1.1-7,0l-23.9,13.2c-1.9,1.1-3.2,0.2-2.9-2l4.6-28.3c0.4-2.2-0.6-5.2-2.1-6.8
			l-19.4-19.9c-1.5-1.6-1-3.1,1.2-3.5l26.6-4.1c2.2-0.3,4.7-2.2,5.7-4.2l12-25.7c0.9-2,2.5-2,3.4,0l12,25.7c0.9,2,3.5,3.9,5.6,4.2
			l26.6,4.1c2.2,0.3,2.7,1.9,1.2,3.5L302.9,61c-1.5,1.6-2.5,4.6-2.1,6.8l4.6,28.3c0.4,2.2-0.9,3.1-2.9,2L278.6,84.8z"
			/>
		</g>
	</g>
	<g id="Star_4">
		<g class="starRating10_0">
			<path
				class="starRating10_1"
				d="M388.6,84.8c-1.9-1.1-5.1-1.1-7,0l-23.9,13.2c-1.9,1.1-3.2,0.2-2.9-2l4.6-28.3c0.4-2.2-0.6-5.2-2.1-6.8
			l-19.4-19.9c-1.5-1.6-1-3.1,1.2-3.5l26.6-4.1c2.2-0.3,4.7-2.2,5.6-4.2l12-25.7c0.9-2,2.5-2,3.4,0l12,25.7c0.9,2,3.5,3.9,5.6,4.2
			l26.6,4.1c2.2,0.3,2.7,1.9,1.2,3.5L412.9,61c-1.5,1.6-2.5,4.6-2.1,6.8l4.6,28.3c0.4,2.2-0.9,3.1-2.9,2L388.6,84.8z"
			/>
		</g>
		<g>
			<path
				class="starRating10_1"
				d="M388.6,84.8c-1.9-1.1-5.1-1.1-7,0l-23.9,13.2c-1.9,1.1-3.2,0.2-2.9-2l4.6-28.3c0.4-2.2-0.6-5.2-2.1-6.8
			l-19.4-19.9c-1.5-1.6-1-3.1,1.2-3.5l26.6-4.1c2.2-0.3,4.7-2.2,5.6-4.2l12-25.7c0.9-2,2.5-2,3.4,0l12,25.7c0.9,2,3.5,3.9,5.6,4.2
			l26.6,4.1c2.2,0.3,2.7,1.9,1.2,3.5L412.9,61c-1.5,1.6-2.5,4.6-2.1,6.8l4.6,28.3c0.4,2.2-0.9,3.1-2.9,2L388.6,84.8z"
			/>
		</g>
	</g>
	<g id="Star_5">
		<g class="starRating10_0">
			<path
				class="starRating10_1"
				d="M498.6,84.8c-1.9-1.1-5.1-1.1-7,0l-23.9,13.2c-1.9,1.1-3.2,0.2-2.9-2l4.6-28.3c0.4-2.2-0.6-5.2-2.1-6.8
			l-19.4-19.9c-1.5-1.6-1-3.1,1.2-3.5l26.6-4.1c2.2-0.3,4.7-2.2,5.6-4.2l12-25.7c0.9-2,2.5-2,3.4,0l12,25.7c0.9,2,3.5,3.9,5.7,4.2
			l26.6,4.1c2.2,0.3,2.7,1.9,1.2,3.5L522.9,61c-1.5,1.6-2.5,4.6-2.2,6.8l4.6,28.3c0.3,2.2-0.9,3.1-2.9,2L498.6,84.8z"
			/>
		</g>
		<g>
			<path
				class="starRating10_1"
				d="M498.6,84.8c-1.9-1.1-5.1-1.1-7,0l-23.9,13.2c-1.9,1.1-3.2,0.2-2.9-2l4.6-28.3c0.4-2.2-0.6-5.2-2.1-6.8
			l-19.4-19.9c-1.5-1.6-1-3.1,1.2-3.5l26.6-4.1c2.2-0.3,4.7-2.2,5.6-4.2l12-25.7c0.9-2,2.5-2,3.4,0l12,25.7c0.9,2,3.5,3.9,5.7,4.2
			l26.6,4.1c2.2,0.3,2.7,1.9,1.2,3.5L522.9,61c-1.5,1.6-2.5,4.6-2.2,6.8l4.6,28.3c0.3,2.2-0.9,3.1-2.9,2L498.6,84.8z"
			/>
		</g>
	</g>
</svg>
