<?xml version="1.0" encoding="utf-8"?>
<!-- Generator: Adobe Illustrator 25.0.1, SVG Export Plug-In . SVG Version: 6.00 Build 0)  -->
<svg
	version="1.1"
	id="Layer_1"
	xmlns="http://www.w3.org/2000/svg"
	xmlns:xlink="http://www.w3.org/1999/xlink"
	x="0px"
	y="0px"
	viewBox="0 0 550 100"
	style="enable-background: new 0 0 550 100"
	xml:space="preserve"
>
	<style type="text/css">
		.starRating2_0 {
			opacity: 0;
		}
		.starRating2_1 {
			fill: #ffffff;
		}
		.starRating2_2 {
			opacity: 0.8;
		}
	</style>
	<g id="Star_1">
		<g class="starRating2_0">
			<path
				class="starRating2_1"
				d="M58.6,84.8c-1.9-1.1-5.1-1.1-7,0L27.7,98.1c-1.9,1.1-3.2,0.2-2.9-2l4.6-28.3c0.4-2.2-0.6-5.2-2.1-6.8
			L7.9,41.1c-1.5-1.6-1-3.1,1.2-3.5l26.6-4.1c2.2-0.3,4.7-2.2,5.7-4.2L53.4,3.6c0.9-2,2.5-2,3.4,0l12.1,25.7c0.9,2,3.5,3.9,5.7,4.2
			l26.6,4.1c2.2,0.3,2.7,1.9,1.2,3.5L82.9,61c-1.5,1.6-2.5,4.6-2.2,6.8l4.6,28.3c0.3,2.2-0.9,3.1-2.9,2L58.6,84.8z"
			/>
		</g>
		<g>
			<path
				class="starRating2_1"
				d="M58.6,84.8c-1.9-1.1-5.1-1.1-7,0L27.7,98.1c-1.9,1.1-3.2,0.2-2.9-2l4.6-28.3c0.4-2.2-0.6-5.2-2.1-6.8
			L7.9,41.1c-1.5-1.6-1-3.1,1.2-3.5l26.6-4.1c2.2-0.3,4.7-2.2,5.7-4.2L53.4,3.6c0.9-2,2.5-2,3.4,0l12.1,25.7c0.9,2,3.5,3.9,5.7,4.2
			l26.6,4.1c2.2,0.3,2.7,1.9,1.2,3.5L82.9,61c-1.5,1.6-2.5,4.6-2.2,6.8l4.6,28.3c0.3,2.2-0.9,3.1-2.9,2L58.6,84.8z"
			/>
		</g>
	</g>
	<g id="Star_2">
		<g class="starRating2_2">
			<g>
				<path
					class="starRating2_1"
					d="M165.1,23.5l4.7,10c2.3,5,7.7,9,13.2,9.9l11.4,1.7l-8.6,8.8c-3.8,3.9-5.7,10-4.9,15.4l1.9,11.9l-9.4-5.2
				c-2.4-1.3-5.3-2-8.3-2c-3,0-5.9,0.7-8.3,2l-9.4,5.2l1.9-11.9c0.9-5.4-1.1-11.5-4.9-15.4l-8.6-8.8l11.4-1.7
				c5.5-0.8,10.9-4.9,13.2-9.9L165.1,23.5 M165.1,2.1c-0.6,0-1.2,0.5-1.7,1.5l-12.1,25.7c-0.9,2-3.5,3.9-5.6,4.2l-26.6,4.1
				c-2.2,0.3-2.7,1.9-1.2,3.5L137.3,61c1.5,1.6,2.5,4.6,2.1,6.8L134.9,96c-0.3,1.6,0.3,2.5,1.4,2.5c0.4,0,0.9-0.1,1.5-0.4l23.9-13.2
				c1-0.5,2.2-0.8,3.5-0.8c1.3,0,2.5,0.3,3.5,0.8l23.9,13.2c0.6,0.3,1,0.4,1.5,0.4c1.1,0,1.6-0.9,1.4-2.5l-4.6-28.3
				c-0.4-2.2,0.6-5.2,2.1-6.8l19.4-19.9c1.5-1.6,1-3.1-1.2-3.5l-26.6-4.1c-2.2-0.3-4.7-2.2-5.6-4.2L166.8,3.6
				C166.3,2.6,165.7,2.1,165.1,2.1L165.1,2.1z"
				/>
			</g>
		</g>
	</g>
	<g id="Star_3">
		<g class="starRating2_2">
			<g>
				<path
					class="starRating2_1"
					d="M275.1,23.5l4.7,10c2.3,5,7.7,9,13.2,9.9l11.4,1.7l-8.6,8.8c-3.8,3.9-5.7,10-4.9,15.4l1.9,11.9l-9.4-5.2
				c-2.4-1.3-5.3-2-8.3-2c-3,0-5.9,0.7-8.3,2l-9.4,5.2l1.9-11.9c0.9-5.4-1.1-11.5-4.9-15.4l-8.6-8.8l11.4-1.7
				c5.5-0.8,10.9-4.9,13.2-9.9L275.1,23.5 M275.1,2.1c-0.6,0-1.2,0.5-1.7,1.5l-12,25.7c-0.9,2-3.5,3.9-5.6,4.2l-26.6,4.1
				c-2.2,0.3-2.7,1.9-1.2,3.5L247.3,61c1.5,1.6,2.5,4.6,2.1,6.8L244.9,96c-0.3,1.6,0.3,2.5,1.4,2.5c0.4,0,0.9-0.1,1.5-0.4l23.9-13.2
				c1-0.5,2.2-0.8,3.5-0.8c1.3,0,2.5,0.3,3.5,0.8l23.9,13.2c0.5,0.3,1,0.4,1.5,0.4c1.1,0,1.6-0.9,1.4-2.5l-4.6-28.3
				c-0.4-2.2,0.6-5.2,2.1-6.8l19.4-19.9c1.5-1.6,1-3.1-1.2-3.5l-26.6-4.1c-2.2-0.3-4.7-2.2-5.6-4.2l-12-25.7
				C276.3,2.6,275.7,2.1,275.1,2.1L275.1,2.1z"
				/>
			</g>
		</g>
	</g>
	<g id="Star_4">
		<g class="starRating2_2">
			<g>
				<path
					class="starRating2_1"
					d="M385.1,23.5l4.7,10c2.3,5,7.7,9,13.2,9.9l11.4,1.7l-8.6,8.8c-3.8,3.9-5.7,10-4.9,15.4l1.9,11.9l-9.4-5.2
				c-2.4-1.3-5.3-2-8.3-2c-3,0-5.9,0.7-8.3,2l-9.4,5.2l1.9-11.9c0.9-5.4-1.1-11.5-4.9-15.4l-8.6-8.8l11.4-1.7
				c5.5-0.8,10.9-4.9,13.2-9.9L385.1,23.5 M385.1,2.1c-0.6,0-1.2,0.5-1.7,1.5l-12,25.7c-0.9,2-3.5,3.9-5.6,4.2l-26.6,4.1
				c-2.2,0.3-2.7,1.9-1.2,3.5L357.3,61c1.5,1.6,2.5,4.6,2.1,6.8L354.9,96c-0.3,1.6,0.3,2.5,1.4,2.5c0.4,0,0.9-0.1,1.5-0.4l23.9-13.2
				c1-0.5,2.2-0.8,3.5-0.8c1.3,0,2.5,0.3,3.5,0.8l23.9,13.2c0.5,0.3,1,0.4,1.5,0.4c1.1,0,1.6-0.9,1.4-2.5l-4.6-28.3
				c-0.4-2.2,0.6-5.2,2.1-6.8l19.4-19.9c1.5-1.6,1-3.1-1.2-3.5l-26.6-4.1c-2.2-0.3-4.7-2.2-5.6-4.2l-12-25.7
				C386.3,2.6,385.7,2.1,385.1,2.1L385.1,2.1z"
				/>
			</g>
		</g>
	</g>
	<g id="Star_5">
		<g class="starRating2_2">
			<g>
				<path
					class="starRating2_1"
					d="M495.1,23.5l4.7,10c2.3,5,7.7,9,13.2,9.9l11.4,1.7l-8.6,8.8c-3.8,3.9-5.7,10-4.9,15.4l1.9,11.9l-9.4-5.2
				c-2.4-1.3-5.3-2-8.3-2c-3,0-5.9,0.7-8.3,2l-9.4,5.2l1.9-11.9c0.9-5.4-1.1-11.5-4.9-15.4l-8.6-8.8l11.4-1.7
				c5.5-0.8,10.9-4.9,13.2-9.9L495.1,23.5 M495.1,2.1c-0.6,0-1.2,0.5-1.7,1.5l-12,25.7c-0.9,2-3.5,3.9-5.6,4.2l-26.6,4.1
				c-2.2,0.3-2.7,1.9-1.2,3.5L467.3,61c1.5,1.6,2.5,4.6,2.1,6.8L464.9,96c-0.3,1.6,0.3,2.5,1.4,2.5c0.4,0,0.9-0.1,1.5-0.4l23.9-13.2
				c1-0.5,2.2-0.8,3.5-0.8c1.3,0,2.5,0.3,3.5,0.8l23.9,13.2c0.5,0.3,1,0.4,1.5,0.4c1.1,0,1.6-0.9,1.4-2.5l-4.6-28.3
				c-0.3-2.2,0.6-5.2,2.2-6.8l19.4-19.9c1.5-1.6,1-3.1-1.2-3.5l-26.6-4.1c-2.2-0.3-4.7-2.2-5.7-4.2l-12-25.7
				C496.3,2.6,495.7,2.1,495.1,2.1L495.1,2.1z"
				/>
			</g>
		</g>
	</g>
</svg>
