<?xml version="1.0" encoding="utf-8"?>
<!-- Generator: Adobe Illustrator 25.2.3, SVG Export Plug-In . SVG Version: 6.00 Build 0)  -->
<svg version="1.1" id="Layer_1" xmlns="http://www.w3.org/2000/svg" xmlns:xlink="http://www.w3.org/1999/xlink" x="0px" y="0px"
	 viewBox="0 0 300 300" style="enable-background:new 0 0 300 300;" xml:space="preserve">
<style type="text/css">
	.st0{fill:none;}
	.st1{fill:#fff;}
</style>
<g id="Layer_1_copy_1_">
	<path class="st0" d="M112,112h76v76h-76V112z"/>
	<path class="st1" d="M180.9,74v76.1c0,17-13.8,30.7-30.7,30.7c-17,0-30.7-13.8-30.7-30.7c0-17,13.8-30.7,30.7-30.7
		c3.5,0,6.9,0.6,10.2,1.8V48.1c51.7,5.2,92.2,48.9,92.2,101.9c0,56.6-45.9,102.4-102.4,102.4S47.8,206.7,47.8,150.1
		c0-53.2,40.4-96.9,92.2-101.9v20.6c-44.9,5.7-76.7,46.8-71,91.7c5.3,40.9,40,71.6,81.2,71.6c45.2,0,82-36.7,82-81.9
		C232.2,116.7,211.9,86.6,180.9,74z"/>
	<path class="st1" d="M280,0H0v0.3v19.6v260.2v19.6v0.3h300v-0.6v-19.3V19.9V0H280z M280,280.1H20V19.9h260V280.1z"/>
</g>
</svg>
